<svg width="12" height="12" viewBox="0 0 12 12" xmlns="http://www.w3.org/2000/svg"><path d="M11.586 1.24h-2.07V.415C9.517.186 9.332 0 9.104 0H7.655c-.228 0-.414.186-.414.414v.827H4.76V.415C4.76.186 4.572 0 4.344 0H2.897c-.228 0-.414.186-.414.414v.827H.413c-.227 0-.413.187-.413.415v9.517c0 .228.186.414.414.414h11.172c.228 0 .414-.186.414-.414V1.655c0-.228-.186-.414-.414-.414zM8.07.83h.62v1.655h-.62V.828zm-4.76 0h.62v1.655h-.62V.828zm-2.482 9.93V4.967h10.344v5.793H.828z" fill="#CC9132" fill-rule="evenodd"/></svg>
