<svg width="46" height="45" viewBox="0 0 46 45" xmlns="http://www.w3.org/2000/svg"><title>Group 4</title><g fill="#FFF" fill-rule="evenodd"><path d="M23 44.594C10.817 44.594.906 34.684.906 22.5.906 10.317 10.816.406 23 .406c5.812 0 11.282 2.23 15.43 6.28l3.902-3.9v13.268l-13.27.002 4.812-4.81C30.942 8.41 27.09 6.85 23 6.85c-8.63 0-15.65 7.02-15.65 15.65S14.37 38.15 23 38.15s15.65-7.02 15.65-15.65v-.92h6.444v.92c0 12.183-9.91 22.094-22.094 22.094zm0-42.348c-11.168 0-20.254 9.086-20.254 20.254 0 11.168 9.086 20.254 20.254 20.254 10.86 0 19.75-8.59 20.234-19.332h-2.766c-.48 9.217-8.13 16.57-17.468 16.57-9.645 0-17.492-7.847-17.492-17.492S13.355 5.008 23 5.008c4.672 0 9.064 1.82 12.37 5.124l1.108 1.114-2.968 2.968h6.983V7.23l-2.09 2.092-1.1-1.16C33.498 4.35 28.41 2.245 23 2.245z"/><path d="M23.92 23.42h-8.284v-1.84h6.444V9.612h1.84M19.318 29.864h7.364v1.842h-7.364"/></g></svg>
