<svg width="45" height="45" viewBox="0 0 45 45" xmlns="http://www.w3.org/2000/svg"><title>Page 1</title><path d="M30.338 27.358C31.56 25.11 32.2 22.414 32.2 19.78c0-6.397-4.257-11.04-10.12-11.04-5.865 0-10.12 4.643-10.12 11.04 0 2.634.638 5.33 1.862 7.578-4.5 1.7-8.302 4.677-8.302 8.522 0 .467.176.915.494 1.256 4.226 4.528 9.93 7.024 16.066 7.024 6.135 0 11.84-2.496 16.066-7.024.318-.34.494-.79.494-1.256 0-3.845-3.804-6.82-8.302-8.522zM22.08 12.422c4.424 0 6.44 3.815 6.44 7.36 0 3.82-1.998 9.2-6.44 9.2s-6.44-5.38-6.44-9.2c0-3.545 2.014-7.36 6.44-7.36zm0 28.058c-4.82 0-9.326-1.856-12.78-5.245.563-1.84 3.43-3.727 6.897-4.826 1.558 1.386 3.52 2.252 5.883 2.252 2.36 0 4.325-.866 5.88-2.253 3.47 1.1 6.335 2.985 6.9 4.825-3.454 3.39-7.96 5.245-12.78 5.245zm0-40.48C9.904 0 0 9.904 0 22.08c0 3.148.647 6.187 1.926 9.037.306.68.978 1.087 1.68 1.087.252 0 .51-.052.753-.164.926-.415 1.34-1.504.925-2.43-1.066-2.373-1.605-4.906-1.605-7.53 0-10.147 8.253-18.4 18.4-18.4 10.145 0 18.4 8.253 18.4 18.4 0 2.622-.54 5.156-1.605 7.527-.417.927 0 2.016.926 2.43.928.42 2.017.005 2.432-.924 1.28-2.848 1.928-5.887 1.928-9.033C44.16 9.904 34.256 0 22.08 0z" fill="#FFF" fill-rule="evenodd"/></svg>
