<svg width="49" height="50" viewBox="0 0 49 50" xmlns="http://www.w3.org/2000/svg"><title>Fill 1</title><path d="M37.83 35.71h-3.927v-1.687c3.888-1.917 6.175-5.44 6.175-9.606v-6.093c0-6.277-5.067-11.384-11.295-11.384-.684 0-1.36.07-2.026.19C24.327 2.883 19.777.016 14.57.016 6.823.015.516 6.372.516 14.182S6.822 28.348 14.57 28.348c1.207 0 2.377-.155 3.494-.444.91 2.62 2.866 4.77 5.6 6.115v1.687h-3.928c-5.31 0-11.027 3.957-11.027 12.644 0 .855.683 1.544 1.53 1.544h37.083c.847 0 1.53-.69 1.53-1.543.003-8.682-5.712-12.64-11.024-12.64zM3.58 14.184c0-6.11 4.933-11.08 10.993-11.08 6.063 0 10.994 4.973 10.994 11.08 0 6.11-4.934 11.08-10.994 11.08-6.063 0-10.994-4.972-10.994-11.08zm8.287 32.627c.498-4.102 3.008-8.015 7.872-8.015h5.457c.846 0 1.53-.69 1.53-1.543v-4.237c0-.63-.382-1.2-.966-1.434-2.446-.976-4.116-2.65-4.822-4.774 4.56-2.344 7.694-7.123 7.694-12.625 0-1.43-.213-2.813-.608-4.115.25-.024.505-.04.76-.04 4.54 0 8.234 3.722 8.234 8.298v6.093c0 3.234-1.9 5.845-5.21 7.167-.583.233-.966.802-.966 1.434v4.234c0 .855.685 1.545 1.532 1.545h5.457c4.863 0 7.373 3.913 7.873 8.014H11.867z" fill="#FFF" fill-rule="evenodd"/></svg>
