<svg width="40" height="40" viewBox="0 0 40 40" xmlns="http://www.w3.org/2000/svg"><title>Group</title><g fill="#FFF" fill-rule="evenodd"><path d="M12.21 38.053c1.262 1.262 2.948 1.896 4.632 1.896 1.79 0 3.58-.686 4.947-2.053l16.368-16.37c1.106-1.106 1.737-2.578 1.79-4.157V5.002c0-1.316-.528-2.578-1.475-3.526C37.578.526 36.316 0 35 0H22.578c-1.526.053-3 .685-4.106 1.79L2.105 18.157c-2.685 2.685-2.79 7-.158 9.632L12.21 38.053zM4.683 20.79l16.37-16.37c.42-.42 1-.685 1.525-.685h12.37c.367 0 .683.16.946.368.263.264.368.58.368.948v12.316c0 .58-.263 1.157-.684 1.58L19.21 35.315c-1.262 1.262-3.262 1.316-4.42.158L4.527 25.21c-1.16-1.21-1.106-3.16.156-4.42z"/><path d="M27.158 18.895c1.525 0 3.104-.58 4.264-1.79 2.368-2.367 2.368-6.21 0-8.578-2.37-2.37-6.21-2.37-8.58 0-2.368 2.368-2.368 6.21 0 8.58 1.21 1.208 2.79 1.788 4.316 1.788zm-1.684-7.737c.473-.472 1.053-.684 1.684-.684.63 0 1.21.21 1.684.684.947.948.947 2.422 0 3.368-.948.948-2.422.948-3.368 0-.894-.948-.894-2.42 0-3.368z"/></g></svg>
