<?xml version="1.0" encoding="UTF-8"?>
<svg width="187px" height="48px" viewBox="0 0 187 48" version="1.1" xmlns="http://www.w3.org/2000/svg" xmlns:xlink="http://www.w3.org/1999/xlink">
    <!-- Generator: Sketch 43.1 (39012) - http://www.bohemiancoding.com/sketch -->
    <title>Group 2</title>
    <desc>Created with Sketch.</desc>
    <defs></defs>
    <g id="Symbols" stroke="none" stroke-width="1" fill="none" fill-rule="evenodd">
        <g id="Header" transform="translate(-241.000000, -55.000000)">
            <g id="Group-5">
                <g id="Group-2" transform="translate(241.000000, 55.000000)">
                    <text id="ANANAS" font-family=".SFNSDisplay, .SF NS Display" font-size="37.5" font-weight="normal" fill="#C37900">
                        <tspan x="41" y="47">ANANAS</tspan>
                    </text>
                    <path d="M26.0867242,14.125987 C25.0238447,12.3087219 23.5579854,10.795007 21.8392521,9.63610693 L24.267246,4.79141208 C24.5201199,4.28684046 24.4193648,3.73100437 24.0143721,3.32896171 C23.6093794,2.92491085 23.0542606,2.82439009 22.5485128,3.0766759 L17.7952929,5.44775884 L15.418683,0.70559295 C15.2171728,0.30154209 14.7608062,-2.84217094e-14 14.3064424,-2.84217094e-14 C13.8520584,-2.84217094e-14 13.3956919,0.252285809 13.1942019,0.70559295 L10.817592,5.44775884 L6.0643721,3.0766759 C5.55862433,2.82439009 5.00149258,2.92491085 4.59851275,3.32896171 C4.19352005,3.73301257 4.14412872,4.28684046 4.34563886,4.79141208 L6.77363278,9.63610693 C5.05489954,10.7457608 3.5870172,12.3107402 2.52616067,14.125987 C1.26179123,16.2447841 0.603914521,18.6158671 0.603914521,21.0895799 L0.603914521,29.8191735 C0.603914521,32.2415209 1.26179123,34.6638683 2.52616067,36.7827664 C4.24489391,39.7096854 7.02650667,41.8799488 10.2646074,42.8890926 C11.5803608,43.2931434 12.9454752,43.4941749 14.3105896,43.4941749 C15.675704,43.4941749 17.0408184,43.2931334 18.3565718,42.8890926 C21.5925483,41.8799488 24.3739538,39.7098872 26.0950134,36.7827664 C27.3593829,34.6639692 28.0172596,32.2928863 28.0172596,29.8706398 L28.0172596,21.1410462 C28.0073823,18.6162203 27.3514932,16.1938729 26.0871238,14.1264916 L26.0867242,14.125987 Z M25.4782591,28.6561359 L25.4782591,29.8170543 C25.4782591,31.2302585 25.2253852,32.6434626 24.6682534,34.0054024 L22.3923885,31.7348301 L25.4782591,28.6561359 Z M3.93441535,33.9541379 C3.3772836,32.6414444 3.12440971,31.2302585 3.12440971,29.7657898 L3.12440971,28.6048714 L6.21028034,31.6835656 L3.93441535,33.9541379 Z M6.21028034,19.1207415 L3.12440971,22.1994356 L3.12440971,21.0385173 C3.12440971,19.6253131 3.3772836,18.2121089 3.93441535,16.8501692 L6.21028034,19.1207415 Z M14.3022447,27.1938873 L18.8025907,31.6837674 L14.3022447,36.1736475 L9.80189874,31.6837674 L14.3022447,27.1938873 Z M7.98039755,20.9382084 L12.4807436,25.4280885 L7.98039755,29.9179686 L3.48005154,25.4280885 L7.98039755,20.9382084 Z M20.6240919,29.9180695 L16.1237459,25.4281894 L20.6240919,20.9383093 L25.1244379,25.4281894 L20.6240919,29.9180695 Z M14.3022447,23.6623906 L9.80189874,19.1725105 L14.3022447,14.6826304 L18.8025907,19.1725105 L14.3022447,23.6623906 Z M14.3022447,11.0481001 L13.2393652,9.98769243 C13.9466029,9.93644814 14.7052246,9.93644814 15.4144852,9.98769243 L14.3022447,11.0481001 Z M25.4782591,21.0391227 L25.4782591,22.2000411 L22.3923885,19.1213469 L24.6682534,16.8507747 C25.1759736,18.2127144 25.4782591,19.6259186 25.4782591,21.0391227 Z M23.4058564,14.5801015 L20.6242437,17.3552454 L16.1238977,12.8653653 L18.3483787,10.6460575 C20.3199858,11.4522116 22.090103,12.8141513 23.4058564,14.5801519 L23.4058564,14.5801015 Z M19.6127481,8.47377575 C19.2077554,8.3220107 18.8027425,8.17024565 18.3997626,8.02044842 L20.3220088,7.06256967 L19.6127481,8.47377575 Z M14.3023965,4.13562035 L15.9717687,7.51584653 C14.8595282,7.36408148 13.6959037,7.36408148 12.5836632,7.51584653 L14.3023965,4.13562035 Z M8.33406697,7.06253939 L10.2563131,8.02041815 C9.85132041,8.1721832 9.44630748,8.27270396 9.04332765,8.47374547 L8.33406697,7.06253939 Z M10.3056741,10.6438374 L12.5301551,12.8631452 L8.02980911,17.3530252 L5.24819634,14.5778814 C6.51256578,12.8138485 8.28268299,11.4519088 10.3056741,10.6437869 L10.3056741,10.6438374 Z M5.19863306,36.2765801 L7.98024582,33.5014362 L12.4805918,37.9913163 L10.2561108,40.2106241 C8.28253127,39.4557345 6.51241406,38.0425303 5.19863306,36.2765297 L5.19863306,36.2765801 Z M13.1899537,40.8689892 L14.3021942,39.7593353 L15.4144347,40.8689892 C14.655813,40.9695099 13.9485753,40.9695099 13.1899537,40.8689892 Z M18.2969947,40.2126424 L16.0725137,37.9933346 L20.5728597,33.5034545 L23.3544724,36.2785984 C22.090103,38.0426312 20.3199858,39.4558354 18.2969947,40.2126928 L18.2969947,40.2126424 Z" id="Page-1" fill="#433B3D"></path>
                </g>
            </g>
        </g>
    </g>
</svg>