<svg width="403" height="511" viewBox="0 0 403 511" xmlns="http://www.w3.org/2000/svg"><title>Pinapple</title><path d="M373.377 224.932c-3.26-25.368-12.467-49.253-26.186-70.372l50.15-42.652c5.223-4.442 6.735-11.136 4.114-17.555-2.61-6.44-8.342-10.2-15.195-9.78l-64.41 3.953-4.068-64.312c-.335-5.475-4.007-11.013-9.088-13.17-5.082-2.157-11.383-1.502-15.788 2.61l-49.087 41.75-41.9-49.078c-4.46-5.222-11.166-6.742-17.59-4.137-6.448 2.595-9.63 8.554-9.77 15.153l4.154 65.703c-24.488 4.25-48.33 14.784-68.812 30.048-24.196 17.692-42.81 41.085-54.55 68.748l-41.44 97.622c-11.497 27.09-15.64 57.3-11.558 86.997 5.327 40.89 26.13 78.365 57.552 105.02 12.796 10.765 27.108 19.493 42.374 25.973 15.266 6.48 31.486 10.712 48.118 12.44 40.978 4.075 82.383-6.99 115.524-31.554 24.196-17.693 42.81-41.086 54.307-68.174l41.437-97.622c11.874-28.28 16.038-58.483 11.712-87.604l-.003-.008zm-75.777 159.6l-5.51 12.983c-6.71 15.803-16.245 30.407-28.94 42.993l-14.673-36.195 49.123-19.78zM31.53 341.514c0-17.324 3.87-34.306 10.823-50.683l5.51-12.98 19.895 49.076-36.228 14.588zm95.862-155.077l-49.123 19.78 5.51-12.982c6.708-15.803 16.244-30.407 28.94-42.992l14.672 36.194zm52.17 128.692l29.014 71.572-71.64 28.847-29.014-71.573 71.64-28.848zm-41.002-99.966l29.014 71.572-71.64 28.848-29.014-71.572 71.64-28.848zm98.767 160.438l-29.014-71.572 71.64-28.847 29.013 71.572-71.64 28.847zm-41.002-99.965l-29.014-71.572 71.64-28.847 29.015 71.572-71.64 28.847zm59.878-141.064l-6.852-16.903c8.153 2.784 16.636 6.385 24.325 10.325l-17.472 6.578zm77.554 164.78l-5.51 12.982-19.895-49.077 36.228-14.588c-.787 17.64-4.115 34.88-10.823 50.682zm7.485-82.068l-44.28 17.83-29.014-71.572 35.41-14.26c18.222 18.375 31.553 42.008 37.883 68.002h.002zm-13.432-86.292c-3.81-3.62-7.618-7.24-11.413-10.827l26.043-1.587-14.63 12.413zm-38.793-73.72l2.623 45.725c-11.717-6.977-24.73-12.5-37.89-16.083l35.267-29.642zm-80.636 4.4l16.95 19.837c-5.25-.226-10.256-1.024-15.717-.69l-1.232-19.147zm5.05 49.408l14.34 35.38-71.64 28.846-17.932-44.238c22.512-13.725 48.772-20.553 75.23-19.987zM34.642 373.488l44.28-17.83 29.014 71.572-35.41 14.258c-18.488-17.81-31.575-42.017-37.884-68.002zm67.566 89.29l17.705-7.13 7.17 17.69c-8.96-2.478-16.87-5.835-24.876-10.56zm60.226 16.902l-14.34-35.38 71.638-28.846 17.934 44.238c-22.513 13.725-49.016 21.126-75.232 19.988z" fill="#FFF" fill-rule="evenodd" opacity=".483"/></svg>
