<svg width="219" height="219" viewBox="0 0 219 219" xmlns="http://www.w3.org/2000/svg" xmlns:xlink="http://www.w3.org/1999/xlink"><defs><path id="a" d="M0 0h1469v287H0z"/></defs><g transform="translate(0 -34)" fill="none" fill-rule="evenodd"><mask id="b" fill="#fff"><use xlink:href="#a"/></mask>
<use fill="#ECE6DD" xlink:href="#a"/><g mask="url(#b)" fill="#000" fill-opacity=".035"><path d="M94.288 228.002c-.287-2.225-1.095-4.32-2.3-6.173l4.4-3.74c.458-.39.59-.977.36-1.54-.23-.564-.73-.894-1.333-.858l-5.65.346-.36-5.64c-.03-.48-.35-.967-.797-1.156-.446-.19-1-.132-1.385.23l-4.306 3.66-3.678-4.306c-.392-.458-.98-.59-1.544-.363-.566.227-.845.75-.857 1.33l.365 5.76c-2.15.373-4.24 1.297-6.037 2.635-2.123 1.55-3.755 3.602-4.785 6.028l-3.634 8.56c-1.01 2.376-1.372 5.025-1.013 7.63.468 3.586 2.294 6.873 5.052 9.21 1.122.946 2.378 1.71 3.717 2.28 1.34.57 2.763.94 4.223 1.092 3.595.358 7.228-.61 10.135-2.765 2.123-1.55 3.755-3.602 4.764-5.977l3.632-8.56c1.042-2.48 1.406-5.13 1.026-7.684zm-6.645 13.995l-.484 1.138c-.59 1.386-1.425 2.667-2.54 3.77l-1.287-3.174 4.31-1.733zm-23.347-3.778c0-1.52.34-3.01.95-4.446l.482-1.14 1.747 4.306-3.18 1.28zm8.408-13.6l-4.31 1.734.484-1.138c.588-1.386 1.424-2.667 2.538-3.77l1.288 3.174zm4.58 11.288l2.547 6.277-6.284 2.53-2.547-6.28 6.284-2.527zm-3.6-8.768l2.548 6.277-6.285 2.53-2.548-6.28 6.284-2.527zm8.67 14.073l-2.547-6.278 6.285-2.528 2.547 6.277-6.286 2.53zm-3.6-8.768l-2.547-6.278 6.285-2.528 2.547 6.276-6.286 2.53zm5.25-12.37l-.6-1.483c.715.244 1.46.56 2.134.906l-1.533.577zm6.81 14.452l-.484 1.14-1.747-4.306 3.18-1.277c-.07 1.547-.36 3.06-.95 4.444zm.654-7.197l-3.885 1.563-2.547-6.277 3.107-1.25c1.6 1.612 2.77 3.684 3.325 5.964zm-1.18-7.568l-1.002-.95 2.285-.138-1.282 1.088zm-3.405-6.466l.23 4.01c-1.028-.612-2.17-1.097-3.324-1.41l3.093-2.6zm-7.076.384l1.488 1.74c-.46-.02-.9-.09-1.38-.06l-.108-1.68zm.444 4.333l1.26 3.103-6.285 2.53-1.574-3.88c1.976-1.205 4.28-1.803 6.6-1.753zm-15.68 23.01l3.885-1.563 2.547 6.277-3.107 1.25c-1.622-1.562-2.77-3.685-3.325-5.964zm5.93 7.832l1.554-.625.63 1.55c-.787-.216-1.48-.51-2.184-.925zm5.285 1.483l-1.26-3.102 6.286-2.53 1.576 3.88c-1.975 1.204-4.3 1.853-6.6 1.753v-.002zM-4.01 227.806c-.288-2.225-1.096-4.32-2.3-6.172l4.4-3.74c.457-.39.59-.976.36-1.54-.23-.564-.733-.894-1.334-.857l-5.65.345-.36-5.64c-.03-.48-.35-.966-.797-1.155-.447-.19-1-.132-1.386.228l-4.307 3.66-3.677-4.304c-.39-.457-.98-.59-1.543-.362-.566.227-.845.75-.857 1.328l.366 5.763c-2.15.37-4.24 1.294-6.037 2.632-2.124 1.55-3.757 3.603-4.786 6.028l-3.634 8.56c-1.008 2.376-1.37 5.026-1.012 7.63.468 3.587 2.294 6.873 5.052 9.212 1.123.944 2.38 1.71 3.718 2.28 1.34.567 2.763.94 4.222 1.09 3.596.36 7.23-.61 10.136-2.764 2.123-1.55 3.755-3.602 4.763-5.978l3.633-8.56c1.04-2.48 1.406-5.13 1.026-7.683zm-6.647 13.996l-.483 1.138c-.588 1.386-1.424 2.666-2.538 3.77l-1.288-3.175 4.31-1.733zm-23.346-3.78c0-1.518.34-3.007.95-4.444l.482-1.138 1.745 4.305-3.178 1.278zm8.408-13.597l-4.31 1.734.483-1.14c.59-1.386 1.425-2.666 2.54-3.77l1.287 3.175zm4.58 11.287l2.547 6.278-6.285 2.528-2.547-6.277 6.285-2.528zm-3.6-8.767l2.548 6.277-6.286 2.528-2.547-6.277 6.285-2.528zm8.67 14.072l-2.548-6.277 6.286-2.53 2.547 6.28-6.285 2.527zm-3.6-8.768l-2.547-6.278 6.285-2.53 2.547 6.28-6.285 2.527zm5.25-12.37l-.6-1.483c.715.244 1.46.56 2.134.906l-1.534.576zm6.81 14.452l-.484 1.138-1.746-4.304 3.18-1.28c-.07 1.548-.362 3.06-.95 4.446zm.654-7.197l-3.886 1.563-2.547-6.278 3.107-1.25c1.6 1.612 2.77 3.685 3.325 5.965zm-1.18-7.568l-1.003-.95 2.285-.14-1.283 1.09zm-3.407-6.466l.23 4.01c-1.027-.61-2.17-1.096-3.323-1.41l3.093-2.6zm-7.075.385l1.488 1.74c-.46-.02-.9-.09-1.38-.06l-.108-1.68zm.444 4.333l1.26 3.103-6.286 2.53-1.574-3.88c1.975-1.204 4.28-1.802 6.6-1.752zm-15.68 23.01l3.884-1.564 2.547 6.278-3.107 1.25c-1.622-1.563-2.77-3.686-3.325-5.965zm5.93 7.83l1.553-.623.63 1.55c-.787-.216-1.48-.51-2.184-.926zm5.284 1.485l-1.26-3.103 6.286-2.528 1.574 3.88c-1.975 1.203-4.3 1.852-6.6 1.75zM94.288 111.327c-.287-2.225-1.095-4.32-2.3-6.172l4.4-3.74c.458-.39.59-.976.36-1.54-.23-.564-.73-.894-1.333-.857l-5.65.345-.36-5.64c-.03-.48-.35-.966-.797-1.155-.446-.19-1-.132-1.385.228l-4.306 3.66-3.678-4.304c-.392-.458-.98-.592-1.544-.363-.566.226-.845.75-.857 1.327l.365 5.763c-2.15.372-4.24 1.295-6.037 2.633-2.123 1.55-3.755 3.603-4.785 6.028l-3.634 8.562c-1.01 2.375-1.372 5.025-1.013 7.63.468 3.586 2.294 6.872 5.052 9.21 1.122.945 2.378 1.71 3.717 2.28 1.34.568 2.763.94 4.223 1.09 3.595.36 7.228-.61 10.135-2.763 2.123-1.552 3.755-3.603 4.764-5.98l3.632-8.56c1.042-2.48 1.406-5.128 1.026-7.682zm-6.645 13.996l-.484 1.138c-.59 1.387-1.425 2.667-2.54 3.77l-1.287-3.174 4.31-1.733zm-23.347-3.78c0-1.518.34-3.007.95-4.444l.482-1.14 1.747 4.306-3.18 1.278zm8.408-13.597l-4.31 1.734.484-1.14c.588-1.385 1.424-2.665 2.538-3.77l1.288 3.176zm4.58 11.287l2.547 6.278-6.284 2.53L71 121.76l6.284-2.53zm-3.6-8.767l2.548 6.277-6.285 2.528-2.548-6.276 6.284-2.528zm8.67 14.072l-2.547-6.277 6.285-2.528 2.547 6.278-6.286 2.528zm-3.6-8.768l-2.547-6.277 6.285-2.53 2.547 6.28-6.286 2.527zm5.25-12.37l-.6-1.482c.715.244 1.46.56 2.134.906l-1.533.576zm6.81 14.453l-.484 1.138-1.747-4.303 3.18-1.28c-.07 1.548-.36 3.06-.95 4.446zm.654-7.197l-3.885 1.563-2.547-6.28 3.107-1.25c1.6 1.613 2.77 3.686 3.325 5.966zm-1.18-7.568l-1.002-.95 2.285-.14-1.282 1.09zm-3.405-6.466l.23 4.01c-1.028-.612-2.17-1.097-3.324-1.412l3.093-2.598zm-7.076.384l1.488 1.74c-.46-.02-.9-.09-1.38-.06l-.108-1.68zm.444 4.333l1.26 3.102-6.285 2.528-1.574-3.88c1.976-1.203 4.28-1.8 6.6-1.75zm-15.68 23.008l3.885-1.563 2.547 6.278-3.107 1.25c-1.622-1.563-2.77-3.686-3.325-5.965zm5.93 7.832l1.554-.624.63 1.55c-.787-.216-1.48-.51-2.184-.926zm5.285 1.484l-1.26-3.103 6.286-2.527 1.576 3.88c-1.975 1.203-4.3 1.852-6.6 1.75zM45.545 170.59c-.287-2.224-1.095-4.32-2.3-6.17l4.4-3.74c.458-.39.59-.977.36-1.54-.23-.565-.732-.895-1.333-.858l-5.65.345-.36-5.64c-.03-.48-.352-.966-.797-1.155-.446-.19-1-.132-1.386.228l-4.307 3.66-3.677-4.304c-.39-.458-.98-.592-1.544-.363-.565.227-.844.75-.857 1.328l.366 5.764c-2.147.372-4.24 1.295-6.036 2.633-2.122 1.55-3.755 3.603-4.785 6.028l-3.634 8.56c-1.01 2.376-1.37 5.026-1.013 7.63.47 3.587 2.295 6.873 5.052 9.212 1.123.944 2.38 1.71 3.72 2.28 1.338.567 2.762.94 4.22 1.09 3.597.36 7.23-.61 10.137-2.764 2.122-1.55 3.755-3.602 4.763-5.978l3.634-8.56c1.04-2.48 1.405-5.13 1.025-7.683zM38.9 184.588l-.484 1.138c-.588 1.386-1.425 2.666-2.538 3.77l-1.288-3.175 4.31-1.733zm-23.347-3.78c0-1.518.34-3.007.948-4.444l.485-1.138 1.746 4.305-3.177 1.278zm8.408-13.597l-4.31 1.734.484-1.14c.588-1.385 1.425-2.665 2.538-3.77l1.29 3.176zm4.58 11.287l2.548 6.278-6.285 2.528-2.547-6.277 6.285-2.53zm-3.6-8.767l2.548 6.277-6.285 2.528-2.547-6.277 6.285-2.528zm8.67 14.072l-2.547-6.277 6.285-2.53 2.548 6.28-6.285 2.527zm-3.6-8.768l-2.546-6.277 6.285-2.53 2.546 6.28-6.285 2.527zm5.252-12.37l-.602-1.482c.715.244 1.46.56 2.134.906l-1.532.576zm6.808 14.453l-.483 1.138-1.747-4.304 3.178-1.278c-.068 1.547-.36 3.06-.948 4.445zm.655-7.197l-3.885 1.563-2.547-6.278 3.106-1.25c1.6 1.612 2.77 3.685 3.325 5.965zm-1.18-7.568l-1.002-.95 2.285-.14-1.284 1.09zm-3.406-6.466l.23 4.01c-1.028-.612-2.17-1.097-3.325-1.412l3.094-2.598zm-7.076.384l1.488 1.74c-.46-.02-.9-.09-1.38-.06l-.108-1.68zm.444 4.333l1.26 3.103-6.286 2.528-1.575-3.88c1.976-1.203 4.28-1.8 6.6-1.75zm-15.68 23.01l3.883-1.564 2.55 6.277-3.108 1.25c-1.622-1.563-2.77-3.686-3.325-5.965zm5.93 7.83l1.552-.623.63 1.55c-.786-.216-1.48-.51-2.183-.926zm5.284 1.485l-1.26-3.103 6.286-2.528 1.574 3.88c-1.975 1.203-4.3 1.852-6.6 1.75zM-4.01 111.132c-.288-2.225-1.096-4.32-2.3-6.172l4.4-3.74c.457-.39.59-.976.36-1.54-.23-.564-.733-.894-1.334-.857l-5.65.345-.36-5.64c-.03-.48-.35-.966-.797-1.156-.447-.19-1-.132-1.386.23l-4.307 3.66-3.677-4.306c-.39-.458-.98-.59-1.543-.363-.566.228-.845.75-.857 1.33l.366 5.76c-2.15.373-4.24 1.297-6.037 2.635-2.124 1.55-3.757 3.602-4.786 6.028l-3.634 8.56c-1.008 2.376-1.37 5.025-1.012 7.63.468 3.586 2.294 6.873 5.052 9.21 1.123.946 2.38 1.712 3.718 2.28 1.34.57 2.763.94 4.222 1.092 3.596.358 7.23-.61 10.136-2.765 2.123-1.55 3.755-3.602 4.763-5.977l3.633-8.56c1.04-2.48 1.406-5.13 1.026-7.684zm-6.647 13.995l-.483 1.14c-.588 1.384-1.424 2.665-2.538 3.768l-1.288-3.174 4.31-1.733zm-23.346-3.778c0-1.52.34-3.01.95-4.446l.482-1.138 1.745 4.304-3.178 1.28zm8.408-13.6l-4.31 1.734.483-1.138c.59-1.386 1.425-2.667 2.54-3.77l1.287 3.175zm4.58 11.288l2.547 6.277-6.285 2.53-2.547-6.28 6.285-2.527zm-3.6-8.768l2.548 6.278-6.286 2.528-2.547-6.278 6.285-2.528zm8.67 14.073l-2.548-6.278 6.286-2.528 2.547 6.277-6.285 2.53zm-3.6-8.768l-2.547-6.278 6.285-2.528 2.547 6.276-6.285 2.53zm5.25-12.37l-.6-1.483c.715.245 1.46.56 2.134.906l-1.534.577zm6.81 14.453l-.484 1.138-1.746-4.304 3.18-1.28c-.07 1.548-.362 3.06-.95 4.446zm.654-7.198l-3.886 1.563-2.547-6.277 3.107-1.25c1.6 1.612 2.77 3.685 3.325 5.964zm-1.18-7.568l-1.003-.95 2.285-.138-1.283 1.088zm-3.407-6.466l.23 4.01c-1.027-.612-2.17-1.096-3.323-1.41l3.093-2.6zm-7.075.384l1.488 1.74c-.46-.02-.9-.09-1.38-.06l-.108-1.68zm.444 4.334l1.26 3.103-6.286 2.528-1.574-3.88c1.975-1.203 4.28-1.802 6.6-1.75zm-15.68 23.01l3.884-1.564 2.547 6.278-3.107 1.25c-1.622-1.563-2.77-3.686-3.325-5.965zm5.93 7.83l1.553-.624.63 1.552c-.787-.218-1.48-.512-2.184-.927zm5.284 1.485l-1.26-3.104 6.286-2.53 1.574 3.88c-1.975 1.205-4.3 1.853-6.6 1.753zM45.545 54.923c-.287-2.225-1.095-4.32-2.3-6.173l4.4-3.74c.458-.39.59-.976.36-1.54-.23-.564-.732-.893-1.333-.857l-5.65.346-.36-5.642c-.03-.48-.352-.966-.797-1.155-.446-.19-1-.132-1.386.23l-4.307 3.66-3.677-4.306c-.39-.458-.98-.59-1.544-.363-.565.227-.844.75-.857 1.33l.366 5.76c-2.147.373-4.24 1.296-6.036 2.635-2.122 1.55-3.755 3.6-4.785 6.027l-3.634 8.56c-1.01 2.376-1.37 5.025-1.013 7.63.47 3.586 2.295 6.873 5.052 9.21 1.123.946 2.38 1.71 3.72 2.28 1.338.57 2.762.94 4.22 1.092 3.597.357 7.23-.612 10.137-2.766 2.122-1.55 3.755-3.602 4.763-5.977l3.634-8.56c1.04-2.48 1.405-5.13 1.025-7.684zM38.9 68.918l-.484 1.138c-.588 1.386-1.425 2.667-2.538 3.77l-1.288-3.174 4.31-1.734zM15.552 65.14c0-1.52.34-3.01.948-4.445l.485-1.14 1.746 4.306-3.177 1.28zm8.408-13.6l-4.31 1.735.484-1.138c.588-1.386 1.425-2.667 2.538-3.77l1.29 3.174zm4.58 11.29l2.548 6.276-6.285 2.53-2.547-6.28 6.285-2.527zm-3.6-8.77l2.548 6.278-6.285 2.53-2.547-6.28 6.285-2.527zm8.67 14.074l-2.547-6.278 6.285-2.528 2.548 6.277-6.285 2.53zm-3.6-8.768l-2.546-6.278 6.285-2.528 2.546 6.277-6.285 2.53zm5.252-12.37l-.602-1.483c.715.244 1.46.56 2.134.906l-1.532.576zm6.808 14.452l-.483 1.14-1.747-4.306 3.178-1.278c-.068 1.547-.36 3.06-.948 4.444zm.655-7.197l-3.885 1.564-2.547-6.278 3.106-1.25c1.6 1.613 2.77 3.685 3.325 5.965zm-1.18-7.567l-1.002-.95 2.285-.138-1.284 1.088zm-3.406-6.466l.23 4.01c-1.028-.612-2.17-1.097-3.325-1.41l3.094-2.6zm-7.076.384l1.488 1.74c-.46-.02-.9-.09-1.38-.06l-.108-1.68zm.444 4.334l1.26 3.103-6.286 2.53-1.575-3.88c1.976-1.205 4.28-1.803 6.6-1.753zm-15.68 23.01l3.883-1.563 2.55 6.278-3.108 1.25c-1.622-1.562-2.77-3.685-3.325-5.964zm5.93 7.832l1.552-.625.63 1.552c-.786-.217-1.48-.512-2.183-.926zm5.284 1.483l-1.26-3.103 6.286-2.53 1.574 3.88c-1.975 1.204-4.3 1.853-6.6 1.752zM202.638 227.806c-.287-2.225-1.095-4.32-2.3-6.172l4.4-3.74c.458-.39.59-.976.36-1.54-.23-.564-.732-.894-1.333-.857l-5.65.345-.36-5.64c-.03-.48-.35-.966-.797-1.155-.446-.19-1-.132-1.385.228l-4.306 3.66-3.678-4.304c-.392-.457-.98-.59-1.544-.362-.566.227-.845.75-.857 1.328l.365 5.763c-2.15.37-4.24 1.294-6.037 2.632-2.123 1.55-3.756 3.603-4.785 6.028l-3.634 8.56c-1.01 2.376-1.372 5.026-1.013 7.63.468 3.587 2.294 6.873 5.052 9.212 1.122.944 2.378 1.71 3.717 2.28 1.34.567 2.763.94 4.222 1.09 3.595.36 7.228-.61 10.135-2.764 2.123-1.55 3.755-3.602 4.764-5.978l3.632-8.56c1.042-2.48 1.406-5.13 1.026-7.683zm-6.645 13.996l-.484 1.138c-.59 1.386-1.425 2.666-2.54 3.77l-1.287-3.175 4.31-1.733zm-23.347-3.78c0-1.518.34-3.007.95-4.444l.482-1.138 1.747 4.305-3.18 1.278zm8.408-13.597l-4.31 1.734.483-1.14c.59-1.386 1.425-2.666 2.54-3.77l1.287 3.175zm4.58 11.287l2.547 6.278-6.284 2.528-2.547-6.277 6.284-2.528zm-3.6-8.767l2.548 6.277-6.286 2.528-2.547-6.277 6.284-2.528zm8.67 14.072l-2.547-6.277 6.285-2.53 2.547 6.28-6.286 2.527zm-3.6-8.768l-2.547-6.278 6.285-2.53 2.547 6.28-6.286 2.527zm5.25-12.37l-.6-1.483c.715.244 1.46.56 2.134.906l-1.533.576zm6.81 14.452l-.484 1.138-1.747-4.304 3.18-1.28c-.07 1.548-.362 3.06-.95 4.446zm.654-7.197l-3.885 1.563-2.547-6.278 3.107-1.25c1.6 1.612 2.77 3.685 3.325 5.965zm-1.18-7.568l-1.002-.95 2.285-.14-1.282 1.09zm-3.406-6.466l.232 4.01c-1.03-.61-2.17-1.096-3.325-1.41l3.092-2.6zm-7.075.385l1.488 1.74c-.46-.02-.9-.09-1.38-.06l-.108-1.68zm.444 4.333l1.26 3.103-6.285 2.53-1.574-3.88c1.976-1.204 4.28-1.802 6.6-1.752zm-15.68 23.01l3.885-1.564 2.547 6.278-3.107 1.25c-1.622-1.563-2.77-3.686-3.325-5.965zm5.93 7.83l1.554-.623.63 1.55c-.787-.216-1.48-.51-2.184-.926zm5.285 1.485l-1.26-3.103 6.286-2.528 1.576 3.88c-1.975 1.203-4.3 1.852-6.6 1.75zM153.894 170.59c-.286-2.224-1.094-4.32-2.3-6.17l4.4-3.74c.46-.39.59-.977.36-1.54-.228-.565-.73-.895-1.332-.858l-5.652.345-.358-5.64c-.03-.48-.352-.966-.798-1.155-.445-.19-.998-.132-1.385.228l-4.307 3.66-3.677-4.304c-.392-.458-.98-.592-1.544-.363-.565.227-.844.75-.857 1.328l.366 5.764c-2.147.372-4.24 1.295-6.036 2.633-2.122 1.55-3.755 3.603-4.785 6.028l-3.634 8.56c-1.01 2.376-1.37 5.026-1.013 7.63.47 3.587 2.295 6.873 5.052 9.212 1.123.944 2.38 1.71 3.72 2.28 1.338.567 2.762.94 4.22 1.09 3.597.36 7.23-.61 10.137-2.764 2.122-1.55 3.755-3.602 4.763-5.978l3.634-8.56c1.04-2.48 1.405-5.13 1.025-7.683zm-6.645 13.997l-.484 1.138c-.588 1.386-1.425 2.666-2.538 3.77l-1.29-3.175 4.31-1.733zm-23.347-3.78c0-1.518.34-3.007.948-4.444l.484-1.138 1.747 4.305-3.177 1.278zm8.407-13.597l-4.31 1.734.484-1.14c.588-1.385 1.425-2.665 2.538-3.77l1.288 3.176zm4.58 11.287l2.548 6.278-6.285 2.528-2.547-6.277 6.285-2.53zm-3.6-8.767l2.548 6.277-6.285 2.528-2.547-6.277 6.285-2.528zm8.67 14.072l-2.547-6.277 6.285-2.53 2.548 6.28-6.286 2.527zm-3.6-8.768l-2.547-6.277 6.286-2.53 2.546 6.28-6.285 2.527zm5.25-12.37l-.6-1.482c.715.244 1.46.56 2.134.906l-1.533.576zm6.81 14.453l-.483 1.138-1.747-4.304 3.178-1.278c-.068 1.547-.36 3.06-.948 4.445zm.655-7.197l-3.885 1.563-2.547-6.278 3.106-1.25c1.598 1.612 2.77 3.685 3.325 5.965zm-1.18-7.568l-1.002-.95 2.285-.14-1.284 1.09zm-3.406-6.466l.23 4.01c-1.028-.612-2.17-1.097-3.325-1.412l3.094-2.598zm-7.076.384l1.487 1.74c-.46-.02-.898-.09-1.378-.06l-.108-1.68zm.444 4.333l1.26 3.103-6.286 2.528-1.575-3.88c1.975-1.203 4.28-1.8 6.6-1.75zm-15.68 23.01l3.883-1.564 2.55 6.277-3.108 1.25c-1.623-1.563-2.77-3.686-3.325-5.965zm5.93 7.83l1.552-.623.63 1.55c-.787-.216-1.48-.51-2.183-.926zm5.284 1.485l-1.26-3.103 6.286-2.528 1.574 3.88c-1.975 1.203-4.3 1.852-6.6 1.75zM252.194 170.59c-.287-2.224-1.095-4.32-2.3-6.17l4.4-3.74c.458-.39.59-.977.36-1.54-.23-.565-.732-.895-1.333-.858l-5.65.345-.36-5.64c-.028-.48-.35-.966-.796-1.155-.446-.19-1-.132-1.386.228l-4.306 3.66-3.677-4.304c-.39-.458-.98-.592-1.544-.363-.564.227-.843.75-.855 1.328l.366 5.764c-2.148.372-4.24 1.295-6.036 2.633-2.123 1.55-3.756 3.603-4.785 6.028l-3.635 8.56c-1.01 2.376-1.37 5.026-1.013 7.63.47 3.587 2.295 6.873 5.052 9.212 1.123.944 2.38 1.71 3.72 2.28 1.34.567 2.762.94 4.22 1.09 3.597.36 7.23-.61 10.137-2.764 2.123-1.55 3.756-3.602 4.764-5.978l3.634-8.56c1.04-2.48 1.406-5.13 1.026-7.683zm-6.646 13.997l-.483 1.138c-.588 1.386-1.425 2.666-2.538 3.77l-1.288-3.175 4.308-1.733zm-23.346-3.78c0-1.518.34-3.007.948-4.444l.484-1.138 1.746 4.305-3.178 1.278zm8.408-13.597l-4.31 1.734.483-1.14c.588-1.385 1.425-2.665 2.538-3.77l1.29 3.176zm4.58 11.287l2.547 6.278-6.285 2.528-2.547-6.277 6.285-2.53zm-3.6-8.767l2.547 6.277-6.285 2.528-2.547-6.277 6.285-2.528zm8.67 14.072l-2.548-6.277 6.285-2.53 2.548 6.28-6.285 2.527zm-3.6-8.768l-2.547-6.277 6.285-2.53 2.547 6.28-6.285 2.527zm5.25-12.37l-.6-1.482c.714.244 1.46.56 2.134.906l-1.533.576zm6.81 14.453l-.484 1.138-1.747-4.304 3.178-1.278c-.07 1.547-.36 3.06-.95 4.445zm.654-7.197l-3.885 1.563-2.548-6.278 3.107-1.25c1.598 1.612 2.768 3.685 3.324 5.965zm-1.18-7.568l-1.002-.95 2.285-.14-1.284 1.09zm-3.406-6.466l.23 4.01c-1.027-.612-2.17-1.097-3.323-1.412l3.093-2.598zm-7.075.384l1.488 1.74c-.46-.02-.9-.09-1.378-.06l-.11-1.68zm.444 4.333l1.26 3.103-6.286 2.528-1.573-3.88c1.975-1.203 4.28-1.8 6.6-1.75zm-15.68 23.01l3.883-1.564 2.548 6.277-3.107 1.25c-1.62-1.563-2.77-3.686-3.324-5.965zm5.93 7.83l1.552-.623.63 1.55c-.787-.216-1.48-.51-2.184-.926zm5.284 1.485l-1.258-3.103 6.285-2.528 1.574 3.88c-1.974 1.203-4.3 1.852-6.6 1.75zM202.638 111.132c-.287-2.225-1.095-4.32-2.3-6.172l4.4-3.74c.458-.39.59-.976.36-1.54-.23-.564-.732-.894-1.333-.857l-5.65.345-.36-5.64c-.03-.48-.35-.966-.797-1.156-.446-.19-1-.132-1.385.23l-4.306 3.66-3.678-4.306c-.392-.458-.98-.59-1.544-.363-.566.228-.845.75-.857 1.33l.365 5.76c-2.15.373-4.24 1.297-6.037 2.635-2.123 1.55-3.756 3.602-4.785 6.028l-3.634 8.56c-1.01 2.376-1.372 5.025-1.013 7.63.468 3.586 2.294 6.873 5.052 9.21 1.122.946 2.378 1.712 3.717 2.28 1.34.57 2.763.94 4.222 1.092 3.595.358 7.228-.61 10.135-2.765 2.123-1.55 3.755-3.602 4.764-5.977l3.632-8.56c1.042-2.48 1.406-5.13 1.026-7.684zm-6.645 13.995l-.484 1.14c-.59 1.384-1.425 2.665-2.54 3.768l-1.287-3.174 4.31-1.733zm-23.347-3.778c0-1.52.34-3.01.95-4.446l.482-1.138 1.747 4.304-3.18 1.28zm8.408-13.6l-4.31 1.734.483-1.138c.59-1.386 1.425-2.667 2.54-3.77l1.287 3.175zm4.58 11.288l2.547 6.277-6.284 2.53-2.547-6.28 6.284-2.527zm-3.6-8.768l2.548 6.278-6.286 2.528-2.547-6.278 6.284-2.528zm8.67 14.073l-2.547-6.278 6.285-2.528 2.547 6.277-6.286 2.53zm-3.6-8.768l-2.547-6.278 6.285-2.528 2.547 6.276-6.286 2.53zm5.25-12.37l-.6-1.483c.715.245 1.46.56 2.134.906l-1.533.577zm6.81 14.453l-.484 1.138-1.747-4.304 3.18-1.28c-.07 1.548-.362 3.06-.95 4.446zm.654-7.198l-3.885 1.563-2.547-6.277 3.107-1.25c1.6 1.612 2.77 3.685 3.325 5.964zm-1.18-7.568l-1.002-.95 2.285-.138-1.282 1.088zm-3.406-6.466l.232 4.01c-1.03-.612-2.17-1.096-3.325-1.41l3.092-2.6zm-7.075.384l1.488 1.74c-.46-.02-.9-.09-1.38-.06l-.108-1.68zm.444 4.334l1.26 3.103-6.285 2.528-1.574-3.88c1.976-1.203 4.28-1.802 6.6-1.75zm-15.68 23.01l3.885-1.564 2.547 6.278-3.107 1.25c-1.622-1.563-2.77-3.686-3.325-5.965zm5.93 7.83l1.554-.624.63 1.552c-.787-.218-1.48-.512-2.184-.927zm5.285 1.485l-1.26-3.104 6.286-2.53 1.576 3.88c-1.975 1.205-4.3 1.853-6.6 1.753zM153.894 54.923c-.286-2.225-1.094-4.32-2.3-6.173l4.4-3.74c.46-.39.59-.976.36-1.54-.228-.564-.73-.893-1.332-.857l-5.652.346-.358-5.642c-.03-.48-.352-.966-.798-1.155-.445-.19-.998-.132-1.385.23l-4.307 3.66-3.677-4.306c-.392-.458-.98-.59-1.544-.363-.565.227-.844.75-.857 1.33l.366 5.76c-2.147.373-4.24 1.296-6.036 2.635-2.122 1.55-3.755 3.6-4.785 6.027l-3.634 8.56c-1.01 2.376-1.37 5.025-1.013 7.63.47 3.586 2.295 6.873 5.052 9.21 1.123.946 2.38 1.71 3.72 2.28 1.338.57 2.762.94 4.22 1.092 3.597.357 7.23-.612 10.137-2.766 2.122-1.55 3.755-3.602 4.763-5.977l3.634-8.56c1.04-2.48 1.405-5.13 1.025-7.684zm-6.645 13.995l-.484 1.138c-.588 1.386-1.425 2.667-2.538 3.77l-1.29-3.174 4.31-1.734zm-23.347-3.778c0-1.52.34-3.01.948-4.445l.484-1.14 1.747 4.306-3.177 1.28zm8.407-13.6L128 53.276l.484-1.138c.588-1.386 1.425-2.667 2.538-3.77l1.288 3.174zm4.58 11.29l2.548 6.276-6.285 2.53-2.547-6.28 6.285-2.527zm-3.6-8.77l2.548 6.278-6.285 2.53-2.547-6.28 6.285-2.527zm8.67 14.074l-2.547-6.278 6.285-2.528 2.548 6.277-6.286 2.53zm-3.6-8.768l-2.547-6.278 6.286-2.528 2.546 6.277-6.285 2.53zm5.25-12.37l-.6-1.483c.715.244 1.46.56 2.134.906l-1.533.576zm6.81 14.452l-.483 1.14-1.747-4.306 3.178-1.278c-.068 1.547-.36 3.06-.948 4.444zm.655-7.197l-3.885 1.564-2.547-6.278 3.106-1.25c1.598 1.613 2.77 3.685 3.325 5.965zm-1.18-7.567l-1.002-.95 2.285-.138-1.284 1.088zm-3.406-6.466l.23 4.01c-1.028-.612-2.17-1.097-3.325-1.41l3.094-2.6zm-7.076.384l1.487 1.74c-.46-.02-.898-.09-1.378-.06l-.108-1.68zm.444 4.334l1.26 3.103-6.286 2.53-1.575-3.88c1.975-1.205 4.28-1.803 6.6-1.753zm-15.68 23.01l3.883-1.563 2.55 6.278-3.108 1.25c-1.623-1.562-2.77-3.685-3.325-5.964zm5.93 7.832l1.552-.625.63 1.552c-.787-.217-1.48-.512-2.183-.926zm5.284 1.483l-1.26-3.103 6.286-2.53 1.574 3.88c-1.975 1.204-4.3 1.853-6.6 1.752zM252.194 54.923c-.287-2.225-1.095-4.32-2.3-6.173l4.4-3.74c.458-.39.59-.976.36-1.54-.23-.564-.732-.893-1.333-.857l-5.65.346-.36-5.642c-.028-.48-.35-.966-.796-1.155-.446-.19-1-.132-1.386.23l-4.306 3.66-3.677-4.306c-.39-.458-.98-.59-1.544-.363-.564.227-.843.75-.855 1.33l.366 5.76c-2.148.373-4.24 1.296-6.036 2.635-2.123 1.55-3.756 3.6-4.785 6.027l-3.635 8.56c-1.01 2.376-1.37 5.025-1.013 7.63.47 3.586 2.295 6.873 5.052 9.21 1.123.946 2.38 1.71 3.72 2.28 1.34.57 2.762.94 4.22 1.092 3.597.357 7.23-.612 10.137-2.766 2.123-1.55 3.756-3.602 4.764-5.977l3.634-8.56c1.04-2.48 1.406-5.13 1.026-7.684zm-6.646 13.995l-.483 1.138c-.588 1.386-1.425 2.667-2.538 3.77l-1.288-3.174 4.308-1.734zm-23.346-3.778c0-1.52.34-3.01.948-4.445l.484-1.14 1.746 4.306-3.178 1.28zm8.408-13.6l-4.31 1.735.483-1.138c.588-1.386 1.425-2.667 2.538-3.77l1.29 3.174zm4.58 11.29l2.547 6.276-6.285 2.53-2.547-6.28 6.285-2.527zm-3.6-8.77l2.547 6.278-6.285 2.53-2.547-6.28 6.285-2.527zm8.67 14.074l-2.548-6.278 6.285-2.528 2.548 6.277-6.285 2.53zm-3.6-8.768l-2.547-6.278 6.285-2.528 2.547 6.277-6.285 2.53zm5.25-12.37l-.6-1.483c.714.244 1.46.56 2.134.906l-1.533.576zm6.81 14.452l-.484 1.14-1.747-4.306 3.178-1.278c-.07 1.547-.36 3.06-.95 4.444zm.654-7.197l-3.885 1.564-2.548-6.278 3.107-1.25c1.598 1.613 2.768 3.685 3.324 5.965zm-1.18-7.567l-1.002-.95 2.285-.138-1.284 1.088zm-3.406-6.466l.23 4.01c-1.027-.612-2.17-1.097-3.323-1.41l3.093-2.6zm-7.075.384l1.488 1.74c-.46-.02-.9-.09-1.378-.06l-.11-1.68zm.444 4.334l1.26 3.103-6.286 2.53-1.573-3.88c1.975-1.205 4.28-1.803 6.6-1.753zm-15.68 23.01l3.883-1.563 2.548 6.278-3.107 1.25c-1.62-1.562-2.77-3.685-3.324-5.964zm5.93 7.832l1.552-.625.63 1.552c-.787-.217-1.48-.512-2.184-.926zm5.284 1.483l-1.258-3.103 6.285-2.53 1.574 3.88c-1.974 1.204-4.3 1.853-6.6 1.752z"/></g></g></svg>
